
<svg version="1.0" xmlns="http://www.w3.org/2000/svg"
 width="1543.000000pt" height="735.000000pt" viewBox="0 0 1543.000000 735.000000"
 preserveAspectRatio="xMidYMid meet">

<g transform="translate(0.000000,735.000000) scale(0.100000,-0.100000)"
fill="#000000" stroke="none">
<path d="M536 7305 c-194 -99 -345 -245 -449 -432 -67 -122 -87 -188 -86 -286
l0 -82 18 66 c28 105 87 247 136 332 51 86 161 208 243 269 67 50 209 121 298
148 38 12 74 23 79 25 6 2 -26 4 -71 4 -76 1 -85 -1 -168 -44z"/>
<path d="M780 7331 c-148 -49 -302 -146 -417 -264 -166 -170 -275 -386 -340
-672 -17 -76 -18 -213 -18 -2825 l0 -2745 28 -80 c39 -112 86 -206 151 -305
65 -98 29 -61 -44 47 -43 62 -92 166 -128 268 -10 30 -10 30 -11 4 -2 -62 77
-233 160 -346 136 -186 360 -336 586 -393 77 -19 148 -20 6955 -20 6131 0
6885 2 6949 15 224 47 456 197 600 388 66 87 149 250 168 329 13 53 16 5689 3
5687 -22 -4 -32 3 -32 23 0 21 0 21 14 3 13 -19 15 -17 21 18 4 21 5 77 3 125
-4 71 -12 103 -41 172 -106 252 -268 425 -514 549 l-82 41 -6978 -1 c-6688 0
-6980 -1 -7033 -18z m13931 -12 c30 -12 77 -30 104 -41 71 -27 155 -71 155
-80 0 -4 3 -7 8 -5 4 1 26 -12 49 -29 33 -24 40 -33 30 -43 -9 -10 -8 -11 6
-5 14 5 33 -10 83 -62 35 -38 64 -77 64 -86 0 -10 6 -18 14 -18 8 0 16 -6 19
-12 6 -17 -3 -39 -13 -33 -5 3 -12 0 -16 -6 -5 -8 -3 -9 6 -4 8 5 11 4 6 -3
-3 -6 -1 -14 5 -18 7 -4 9 -3 6 3 -4 6 -1 16 7 22 11 10 17 6 29 -18 12 -23
12 -31 2 -35 -7 -2 -18 1 -25 7 -8 9 -8 4 1 -18 22 -51 41 -75 58 -75 14 1 14
2 -2 11 -12 7 -16 17 -12 32 5 17 4 19 -4 7 -6 -8 -11 -12 -11 -8 0 3 -3 14
-6 23 -12 30 21 11 38 -23 13 -25 15 -40 7 -58 -12 -33 -12 -47 1 -39 6 3 10
16 11 28 0 16 6 9 20 -22 15 -34 17 -47 8 -55 -9 -8 -10 -7 -6 6 3 9 -1 22 -9
29 -21 18 -28 4 -11 -22 9 -11 13 -29 10 -38 -4 -11 -1 -10 10 4 8 11 19 17
23 12 4 -4 2 -13 -4 -19 -16 -16 -15 -31 2 -25 11 4 19 -12 31 -64 10 -39 15
-73 11 -76 -3 -4 -6 3 -6 15 0 13 -6 22 -15 22 -9 0 -12 -6 -9 -17 5 -16 4
-16 -6 0 -9 14 -9 25 0 47 9 21 9 33 0 47 -10 17 -11 17 -6 -2 3 -11 1 -27 -4
-35 -8 -12 -10 -9 -10 13 0 15 -7 38 -15 51 -9 13 -15 28 -13 32 3 11 -88 200
-113 235 -10 14 -16 29 -12 33 3 3 2 6 -4 6 -6 0 -28 23 -48 51 -41 57 -151
179 -163 179 -4 0 -6 12 -5 25 1 17 -2 22 -13 18 -7 -3 -14 0 -14 6 0 6 -5 11
-11 11 -5 0 -7 -4 -4 -10 10 -16 -11 -11 -36 9 -44 34 -132 82 -203 111 -39
16 -66 29 -60 29 6 1 36 -9 65 -20z m-204 -74 c417 -68 745 -414 793 -838 8
-63 10 -940 8 -2767 l-3 -2675 -27 -97 c-27 -99 -85 -226 -141 -307 -45 -67
-163 -187 -232 -236 -112 -79 -258 -141 -389 -164 -84 -15 -13528 -15 -13612
0 -122 21 -270 82 -374 152 -66 45 -186 163 -235 232 -63 89 -124 216 -154
324 l-26 96 -3 2675 c-2 1827 0 2704 8 2767 42 369 286 672 646 802 142 52
-264 49 6934 50 5918 1 6726 -1 6807 -14z m911 -905 c0 -22 -1 -22 -8 5 -4 17
-8 39 -8 50 0 16 2 15 8 -5 4 -14 8 -36 8 -50z m-1 -5532 c-3 -8 -6 -5 -6 6
-1 11 2 17 5 13 3 -3 4 -12 1 -19z m-22 -78 c-9 -28 -19 -50 -21 -48 -2 2 4
27 13 56 9 28 19 50 21 47 2 -2 -4 -27 -13 -55z m-39 -97 c-8 -15 -15 -25 -16
-21 0 12 23 58 27 54 3 -2 -2 -17 -11 -33z m-43 -88 c-9 -19 -18 -33 -21 -31
-4 5 26 66 33 66 3 0 -3 -16 -12 -35z"/>
<path d="M14876 7235 c10 -8 24 -15 31 -15 6 0 14 -6 16 -12 4 -9 6 -9 6 -1 1
6 -13 19 -31 27 -39 20 -48 20 -22 1z"/>
<path d="M15005 7154 c11 -8 19 -19 18 -24 -3 -12 59 -60 77 -60 7 0 11 -3 7
-6 -12 -12 24 -66 39 -60 9 3 18 6 20 6 3 0 2 5 -1 10 -5 8 -12 7 -23 -2 -14
-12 -14 -10 -3 10 6 12 8 21 3 20 -4 -2 -19 9 -33 23 -13 15 -33 28 -44 31
-11 2 -19 10 -17 20 3 17 -12 31 -43 41 l-20 7 20 -16z"/>
<path d="M15156 6991 c-4 -6 -2 -11 3 -11 6 0 10 -5 9 -12 -2 -7 3 -12 11 -13
8 0 16 -6 19 -14 3 -9 0 -11 -9 -6 -8 5 -10 4 -6 0 4 -5 14 -10 21 -11 12 -2
12 4 -1 35 -15 37 -31 60 -20 29 3 -10 1 -20 -5 -24 -6 -4 -8 -3 -5 2 3 6 2
16 -2 23 -6 9 -11 10 -15 2z"/>
<path d="M15250 6881 c0 -6 4 -13 10 -16 6 -3 7 1 4 9 -7 18 -14 21 -14 7z"/>
<path d="M470 4621 c-49 -15 -87 -40 -127 -84 -75 -81 -73 -61 -73 -847 0
-786 -2 -766 73 -847 51 -55 104 -83 172 -90 111 -12 219 48 269 149 l26 52 0
735 0 736 -24 51 c-53 113 -199 180 -316 145z"/>
</g>
</svg>
