
<svg version="1.0" xmlns="http://www.w3.org/2000/svg"
 width="1561.000000pt" height="752.000000pt" viewBox="0 0 1561.000000 752.000000"
 preserveAspectRatio="xMidYMid meet">

<g transform="translate(0.000000,752.000000) scale(0.100000,-0.100000)"
fill="#000000" stroke="none">
<path d="M3355 7493 c-11 -3 -24 -9 -29 -14 -6 -5 -486 -9 -1150 -9 -1258 0
-1270 -1 -1446 -62 -306 -107 -550 -356 -650 -662 -36 -113 -48 -179 -56 -317
-9 -135 7 -146 24 -16 24 188 95 402 181 547 49 81 160 203 239 262 48 36 186
109 257 136 49 19 218 62 240 61 11 0 -19 -11 -66 -24 -171 -47 -338 -146
-466 -278 -201 -206 -327 -496 -362 -832 -6 -64 -12 -1024 -16 -2670 -5 -2315
-4 -2579 10 -2659 29 -167 89 -314 189 -466 31 -47 45 -71 31 -55 -58 66 -126
178 -160 260 -61 148 -75 218 -85 450 -15 326 -16 334 -18 120 -2 -229 13
-367 53 -495 94 -296 318 -537 608 -655 172 -71 211 -75 770 -75 418 0 497 -2
497 -14 0 -8 7 -17 16 -20 9 -3 143 -6 299 -6 275 0 284 1 290 20 6 20 15 20
361 20 295 0 354 -2 354 -14 0 -7 10 -16 23 -20 12 -3 257 -6 545 -6 509 0
523 1 542 20 18 18 33 20 155 20 108 0 135 -3 135 -14 0 -7 10 -16 23 -20 29
-8 1035 -8 1065 0 12 4 22 13 22 20 0 12 662 14 4409 14 4376 0 4410 0 4506
20 324 67 596 279 735 575 65 137 89 239 94 405 l5 135 -9 -113 c-4 -63 -11
-117 -15 -120 -5 -4 -5 15 -1 42 3 27 6 569 7 1205 0 636 4 1147 8 1136 6 -15
9 -11 14 20 9 51 9 757 1 808 -7 37 -19 48 -27 25 -2 -7 -1 1 2 17 3 17 5 89
4 160 -3 309 -3 841 -1 970 l2 140 6 -170 c3 -99 7 70 8 404 1 316 -1 572 -4
568 -3 -3 -5 -141 -5 -306 2 -227 -1 -301 -10 -301 -9 0 -11 61 -6 253 5 235
-1 339 -27 517 -3 22 0 16 8 -15 8 -27 15 -63 16 -80 1 -16 4 -24 7 -17 9 22
-19 143 -33 149 -8 3 -14 15 -14 26 0 20 0 21 16 1 15 -18 15 -18 10 6 -3 14
-6 31 -6 38 0 6 -7 12 -15 12 -9 0 -12 -6 -9 -17 5 -16 4 -16 -6 0 -9 14 -9
25 0 47 9 21 9 33 0 47 -10 17 -11 17 -6 -2 3 -11 1 -27 -4 -35 -8 -12 -10 -9
-10 13 0 15 -7 38 -15 51 -9 13 -15 28 -13 32 3 11 -88 200 -113 235 -10 14
-16 29 -12 33 3 3 2 6 -4 6 -6 0 -28 23 -48 51 -41 57 -151 179 -163 179 -4 0
-6 12 -5 25 1 17 -2 22 -13 18 -7 -3 -14 0 -14 6 0 6 -5 11 -11 11 -5 0 -7 -4
-4 -10 10 -16 -11 -11 -36 9 -44 34 -132 82 -203 111 -39 16 -66 29 -60 29 6
1 36 -9 65 -20 30 -12 77 -30 104 -41 71 -27 155 -71 155 -80 0 -4 3 -7 8 -6
4 2 26 -11 49 -28 33 -24 40 -33 30 -43 -9 -10 -8 -11 6 -5 14 5 33 -10 83
-62 35 -38 64 -77 64 -86 0 -10 6 -18 14 -18 8 0 16 -6 18 -12 7 -18 -2 -39
-12 -33 -5 3 -12 0 -16 -6 -5 -8 -3 -9 6 -4 8 5 11 4 6 -3 -3 -6 -1 -14 5 -18
7 -4 9 -3 6 3 -4 6 -1 16 7 22 11 10 17 6 29 -18 12 -23 12 -31 2 -35 -7 -2
-18 1 -25 7 -8 9 -8 4 1 -18 22 -51 41 -75 58 -75 14 1 14 2 -2 11 -12 7 -16
17 -12 32 4 15 3 18 -3 9 -7 -11 -10 -10 -16 3 -8 23 -8 25 7 23 23 -5 47 -67
36 -94 -12 -33 -12 -47 1 -39 6 3 10 16 11 28 0 16 6 9 20 -22 15 -34 17 -47
8 -55 -9 -8 -10 -7 -6 6 3 9 -1 22 -9 29 -21 18 -28 4 -11 -22 9 -11 13 -29
10 -38 -4 -11 -1 -10 10 4 8 11 19 17 23 12 4 -4 2 -13 -4 -19 -16 -16 -15
-31 2 -25 11 4 19 -16 36 -82 12 -48 20 -91 19 -97 -2 -5 3 -33 9 -62 7 -29
12 -66 12 -82 0 -17 5 -30 10 -30 22 0 0 284 -31 392 -85 296 -277 527 -554
665 -104 52 -188 79 -307 98 -87 13 -633 15 -4919 15 -3631 0 -4826 3 -4842
12 -28 15 -965 11 -1326 -5 -66 -3 -87 -2 -56 2 l50 8 -50 2 c-27 0 -66 3 -85
5 -19 3 -44 2 -55 -1z m-2332 -70 c-7 -2 -19 -2 -25 0 -7 3 -2 5 12 5 14 0 19
-2 13 -5z m13554 -128 c417 -68 745 -414 793 -838 8 -63 10 -940 8 -2767 l-3
-2675 -27 -97 c-27 -99 -85 -226 -141 -307 -45 -67 -163 -187 -232 -236 -112
-79 -258 -141 -389 -164 -84 -15 -13528 -15 -13612 0 -122 21 -270 82 -374
152 -66 45 -186 163 -235 232 -63 89 -124 216 -154 324 l-26 96 -3 2675 c-2
1827 0 2704 8 2767 42 369 286 672 646 802 142 52 -264 49 6934 50 5918 1
6726 -1 6807 -14z m943 -1737 c0 -50 -2 -89 -5 -86 -9 9 -13 178 -4 178 5 0 9
-41 9 -92z m-23 -4660 c-3 -7 -5 -2 -5 12 0 14 2 19 5 13 2 -7 2 -19 0 -25z
m-10 -40 c-3 -8 -6 -5 -6 6 -1 11 2 17 5 13 3 -3 4 -12 1 -19z m-22 -78 c-9
-28 -19 -50 -21 -48 -2 2 4 27 13 56 9 28 19 50 21 47 2 -2 -4 -27 -13 -55z
m-39 -97 c-8 -15 -15 -25 -16 -21 0 12 23 58 27 54 3 -2 -2 -17 -11 -33z m-43
-88 c-9 -19 -18 -33 -21 -31 -4 5 26 66 33 66 3 0 -3 -16 -12 -35z"/>
<path d="M540 4671 c-49 -15 -87 -40 -127 -84 -75 -81 -73 -61 -73 -847 0
-786 -2 -766 73 -847 51 -55 104 -83 172 -90 111 -12 219 48 269 149 l26 52 0
735 0 736 -24 51 c-53 113 -199 180 -316 145z"/>
<path d="M14946 7285 c10 -8 24 -15 31 -15 6 0 14 -6 16 -12 4 -9 6 -9 6 -1 1
6 -13 19 -31 27 -39 20 -48 20 -22 1z"/>
<path d="M15075 7204 c11 -8 19 -19 18 -24 -3 -12 59 -60 77 -60 7 0 11 -3 7
-6 -12 -12 24 -66 39 -60 9 3 18 6 20 6 3 0 2 5 -1 10 -5 8 -12 7 -23 -2 -14
-12 -14 -10 -3 10 6 12 8 21 3 20 -4 -2 -19 9 -33 23 -13 15 -33 28 -44 31
-11 2 -19 10 -17 20 3 17 -12 31 -43 41 l-20 7 20 -16z"/>
<path d="M15226 7041 c-4 -6 -2 -11 3 -11 6 0 10 -5 9 -12 -2 -7 3 -12 11 -13
8 0 16 -6 19 -14 3 -9 0 -11 -9 -6 -8 5 -10 4 -6 0 4 -5 14 -10 21 -11 12 -2
12 4 -1 35 -15 37 -31 60 -20 29 3 -10 1 -20 -5 -24 -6 -4 -8 -3 -5 2 3 6 2
16 -2 23 -6 9 -11 10 -15 2z"/>
<path d="M15320 6931 c0 -6 4 -13 10 -16 6 -3 7 1 4 9 -7 18 -14 21 -14 7z"/>
</g>
</svg>
