<svg width="291" height="24" viewBox="0 0 291 24" fill="none" xmlns="http://www.w3.org/2000/svg">
<g clip-path="url(#clip0_4_274)">
<path d="M131.42 9.80002C137.04 10.05 141.54 11.7 141.54 11.7C141.54 11.7 136.92 12.94 131.29 12.69C125.66 12.44 121.14 11.59 121.17 10.79C121.2 9.99002 125.79 9.55002 131.42 9.80002Z" fill="#D1AD76"/>
<path d="M138.43 0.0100138C139.06 -0.199986 140.41 1.91001 141.45 4.74001C142.48 7.57001 142.17 10.24 142.17 10.24C142.17 10.24 140.19 8.34001 139.15 5.51001C138.12 2.68001 137.79 0.220014 138.43 0.0100138Z" fill="#D1AD76"/>
<path d="M130.65 2.45999C131.16 1.84999 133.96 3.20999 136.91 5.49999C139.85 7.78999 141.31 10.76 141.31 10.76C141.31 10.76 138 10.01 135.05 7.71999C132.11 5.42999 130.13 3.07999 130.65 2.45999Z" fill="#D1AD76"/>
<path d="M138.12 23.5C138.75 23.72 140.1 21.61 141.14 18.79C142.18 15.97 141.86 13.29 141.86 13.29C141.86 13.29 139.88 15.18 138.84 18C137.81 20.82 137.48 23.28 138.12 23.5Z" fill="#D1AD76"/>
<path d="M130.34 21C130.85 21.62 133.65 20.27 136.6 18C139.54 15.73 141.01 12.77 141.01 12.77C141.01 12.77 137.7 13.5 134.75 15.77C131.81 18.04 129.83 20.38 130.34 21Z" fill="#D1AD76"/>
<path d="M160.03 10.43C154.41 10.18 149.78 11.42 149.78 11.42C149.78 11.42 154.27 13.07 159.9 13.32C165.53 13.57 170.11 13.13 170.15 12.33C170.19 11.53 165.66 10.68 160.03 10.43Z" fill="#D1AD76"/>
<path d="M153.93 0.0599903C153.32 -0.21001 151.78 1.77999 150.5 4.49999C149.22 7.21999 149.29 9.91999 149.29 9.91999C149.29 9.91999 151.44 8.19999 152.72 5.47999C154 2.75999 154.54 0.32999 153.93 0.0599903Z" fill="#D1AD76"/>
<path d="M161.45 3.19002C161 2.53002 158.08 3.64002 154.95 5.66002C151.81 7.68002 150.09 10.5 150.09 10.5C150.09 10.5 153.46 10.05 156.59 8.03002C159.73 6.01002 161.9 3.84002 161.45 3.19002Z" fill="#D1AD76"/>
<path d="M152.13 23.47C151.48 23.63 150.32 21.41 149.55 18.51C148.78 15.61 149.32 12.97 149.32 12.97C149.32 12.97 151.13 15.03 151.9 17.93C152.68 20.83 152.78 23.31 152.13 23.47Z" fill="#D1AD76"/>
<path d="M160.1 21.68C159.54 22.25 156.86 20.66 154.14 18.13C151.41 15.6 150.22 12.53 150.22 12.53C150.22 12.53 153.46 13.55 156.18 16.08C158.91 18.61 160.67 21.11 160.1 21.68Z" fill="#D1AD76"/>
<path d="M6.27999 12.72L96.87 12.72V10.95L6.27999 10.95V12.72Z" fill="#94A3B8"/>
<path d="M114.75 16.26C117.694 16.26 120.08 14.2453 120.08 11.76C120.08 9.27473 117.694 7.26001 114.75 7.26001C111.806 7.26001 109.42 9.27473 109.42 11.76C109.42 14.2453 111.806 16.26 114.75 16.26Z" fill="#D1AD76"/>
<path d="M106 14.51C107.519 14.51 108.75 13.2788 108.75 11.76C108.75 10.2412 107.519 9.01001 106 9.01001C104.481 9.01001 103.25 10.2412 103.25 11.76C103.25 13.2788 104.481 14.51 106 14.51Z" fill="#D1AD76"/>
<path d="M2.75 14.59C4.26878 14.59 5.5 13.3588 5.5 11.84C5.5 10.3212 4.26878 9.09003 2.75 9.09003C1.23122 9.09003 0 10.3212 0 11.84C0 13.3588 1.23122 14.59 2.75 14.59Z" fill="#D1AD76"/>
<path d="M284.59 10.46H194V12.23H284.59V10.46Z" fill="#94A3B8"/>
<path d="M288.12 14.09C289.639 14.09 290.87 12.8588 290.87 11.34C290.87 9.82124 289.639 8.59003 288.12 8.59003C286.601 8.59003 285.37 9.82124 285.37 11.34C285.37 12.8588 286.601 14.09 288.12 14.09Z" fill="#D1AD76"/>
<path d="M100.06 13.74C101.154 13.74 102.04 12.8536 102.04 11.76C102.04 10.6665 101.154 9.78003 100.06 9.78003C98.9665 9.78003 98.08 10.6665 98.08 11.76C98.08 12.8536 98.9665 13.74 100.06 13.74Z" fill="#D1AD76"/>
<path d="M176.765 16.2495C179.708 16.2074 182.065 14.1587 182.03 11.6737C181.994 9.18868 179.579 7.20831 176.636 7.25044C173.692 7.29257 171.335 9.34123 171.371 11.8263C171.406 14.3113 173.821 16.2916 176.765 16.2495Z" fill="#D1AD76"/>
<path d="M185.489 14.5045C187.007 14.4828 188.221 13.2341 188.199 11.7154C188.177 10.1968 186.929 8.98334 185.41 9.00508C183.891 9.02681 182.678 10.2755 182.7 11.7942C182.721 13.3128 183.97 14.5263 185.489 14.5045Z" fill="#D1AD76"/>
<path d="M191.417 13.7296C192.51 13.7139 193.384 12.8149 193.368 11.7215C193.353 10.6281 192.454 9.75435 191.36 9.77C190.267 9.78565 189.393 10.6847 189.409 11.7781C189.425 12.8715 190.324 13.7452 191.417 13.7296Z" fill="#D1AD76"/>
</g>
<defs>
<clipPath id="clip0_4_274">
<rect width="290.87" height="23.51" fill="white"/>
</clipPath>
</defs>
</svg>
